<svg id="Capa_1" enable-background="new 0 0 512 512" height="512" viewBox="0 0 512 512" width="512" xmlns="http://www.w3.org/2000/svg"><g><path d="m414.898 512c-2.511 0-4.936-.542-7.207-1.612l-151.491-71.041-151.494 71.042c-2.254 1.049-4.755 1.603-7.235 1.603-3.739 0-7.411-1.249-10.337-3.517-5.06-3.895-7.501-10.217-6.369-16.497l28.861-159.609-105.375-118.995c-4.097-4.646-5.343-11.149-3.254-16.97 2.091-5.824 7.18-10.059 13.279-11.054l151.202-24.386 75.48-152.158c2.67-5.431 8.51-8.806 15.242-8.806s12.572 3.375 15.242 8.808l75.479 152.155 150.799 24.386c6.102.995 11.191 5.231 13.282 11.054 2.089 5.821.843 12.323-3.254 16.969l-104.973 118.997 28.86 159.609c1.133 6.28-1.309 12.603-6.373 16.501-2.951 2.271-6.632 3.521-10.364 3.521z" fill="#ffe14d"/><path d="m407.692 510.388c2.271 1.069 4.695 1.612 7.207 1.612 3.732 0 7.413-1.25 10.364-3.521 5.064-3.898 7.506-10.221 6.373-16.501l-28.86-159.609 104.975-118.996c4.097-4.646 5.343-11.148 3.254-16.969-2.091-5.824-7.18-10.06-13.282-11.054l-150.799-24.386-75.481-152.156c-2.67-5.433-8.511-8.808-15.243-8.808v439.347z" fill="#fb3"/><path d="m141.738 323.38-99.339-112.178 143.095-23.079 70.706-142.533 70.703 142.526 142.757 23.086-98.991 112.213 26.964 149.122-141.433-66.325-141.433 66.325z" fill="#e64545"/><path d="m326.903 188.116-70.703-142.526v360.622l141.433 66.325-26.964-149.122 98.991-112.213z" fill="#cc2929"/><g><g id="Hollywood_Star_2_"><g><path d="m316.2 390.571h-120c-8.291 0-15-6.709-15-15s6.709-15 15-15h120c8.291 0 15 6.709 15 15s-6.709 15-15 15z" fill="#ffe14d"/></g><g><path d="m256.2 330.571c-41.367 0-75-33.647-75-75s33.633-75 75-75 75 33.647 75 75-33.633 75-75 75z" fill="#ffe14d"/></g></g><path d="m256.2 390.571h60c8.291 0 15-6.709 15-15s-6.709-15-15-15h-60z" fill="#fb3"/><path d="m331.2 255.571c0-41.353-33.633-75-75-75v150c41.367 0 75-33.647 75-75z" fill="#fb3"/><circle cx="256.2" cy="255.571" fill="#704c55" r="45"/><path d="m301.2 255.571c0-24.813-20.187-45-45-45v90c24.813 0 45-20.187 45-45z" fill="#5a344b"/></g></g></svg>